<svg id="Layer_1" data-name="Layer 1" xmlns="http://www.w3.org/2000/svg" viewBox="0 0 212.37 41"><defs><style>.cls-1{fill:#fff;}.cls-2{fill:#deef0b;}.cls-3{fill:#191919;}</style></defs><path class="cls-1" d="M121.79,32.94V7.41h11.92q6,0,6,6v2.33a3.26,3.26,0,0,1-.74,2.15l-1.3,1.55,1.56,1.3a3.6,3.6,0,0,1,1.22,3v3.18q0,6-6,6Zm4.52-15.28h7.29A1.44,1.44,0,0,0,135.22,16V13.11a1.42,1.42,0,0,0-1.62-1.59h-7.29Zm0,11.17h8A1.42,1.42,0,0,0,136,27.24V23.36a1.42,1.42,0,0,0-1.62-1.59h-8Z"/><path class="cls-1" d="M144.33,26.91V13.44c0-4,2-6,6-6h8.47q6,0,6,6V26.91q0,6-6,6h-8.47C146.33,32.94,144.33,30.93,144.33,26.91Zm4.51.33a1.42,1.42,0,0,0,1.63,1.59h8.25a1.43,1.43,0,0,0,1.63-1.59V13.11a1.43,1.43,0,0,0-1.63-1.59h-8.25a1.42,1.42,0,0,0-1.63,1.59Z"/><path class="cls-1" d="M169.67,32.94V7.41h9.8q10,0,10,10v5.47q0,10-10,10Zm4.51-4.11h5.55c3.48,0,5.22-1.73,5.22-5.21V16.74q0-5.22-5.22-5.22h-5.55Z"/><path class="cls-1" d="M191.46,8.3l.56-.89h3.85l6,11.58L208,7.41h3.89l.52.89-8.18,15.47v9.17h-4.55V23.77Z"/><rect class="cls-2" width="118" height="41"/><path class="cls-3" d="M40.19,26.78V13.69q0-6.22,6.22-6.22H57.1l2.48,1.92v2.89H46.63a1,1,0,0,0-1.11,1.11V27.08a1,1,0,0,0,1.11,1.11H55V22.27H50.11V17.46H60.32V33H46.41Q40.2,33,40.19,26.78Z"/><path class="cls-3" d="M62.17,8.47l.63-1h4.55L72.9,18.31,78.45,7.47H83l.63,1L75.56,24v9H70.24V24Z"/><path class="cls-3" d="M86.22,33V7.47h6.36l7.18,15.32,7.18-15.32h6.37V33H108V16.87l-6,12.8H97.54l-6-12.8V33Z"/><path class="cls-3" d="M11.77,4.6a1.57,1.57,0,0,0-.76.89c0,.11-.27,2-.51,4.13l-.43,3.93-.23.14a13.19,13.19,0,0,0-2.93,2.62,12.36,12.36,0,0,0,7.55,20,4.94,4.94,0,0,0,1.64.14l-.25-.37a2.49,2.49,0,0,1-.31-.56.66.66,0,0,0-.41-.39,3.94,3.94,0,0,1-1.4-1.51c-.2-.4-.27-.49-.49-.59a3,3,0,0,1-1.11-1,3.29,3.29,0,0,1-.05-2.9A2.89,2.89,0,0,1,13.14,28c.32-.16.37-.22.61-.72a3.33,3.33,0,0,1,1.37-1.45,1,1,0,0,0,.54-.55,3,3,0,0,1,1.93-1.51A3,3,0,0,1,21.17,26a6,6,0,0,1,.1,1.24v.85h7l.07-.18a6.78,6.78,0,0,0,.12-1.1,2.91,2.91,0,0,1,.25-1.42l.22-.48,0-1.06a12.17,12.17,0,0,0-2.54-7.21,13.14,13.14,0,0,0-3.17-2.93.53.53,0,0,1-.28-.34c0-.12-.21-1.89-.44-3.95-.44-3.95-.46-4-.83-4.49a1.57,1.57,0,0,0-.45-.34c-.27-.13-.35-.13-4.67-.13h-4.4Zm8.62,1.45c.16.14.18.27.52,2.64s.35,2.51.25,2.66-.34.28-.88.11A13.67,13.67,0,0,0,13,11.39a3.69,3.69,0,0,1-.72.17.45.45,0,0,1-.41-.41c0-.08.15-1.24.34-2.59.32-2.19.37-2.44.49-2.54s.4-.11,3.86-.11h3.71Zm-3.61,8.31a.44.44,0,0,1,0,.65c-.12.1-.3.13-.91.16a9.72,9.72,0,0,0-1.15.14c-.57.15-.77.13-.92-.07-.37-.47,0-.71,1.4-.92C16.19,14.17,16.58,14.18,16.78,14.36Zm-5.73,1.91a.55.55,0,0,1,.16.46,4.2,4.2,0,0,1-.53.52,10.19,10.19,0,0,0-1.63,1.81,10.64,10.64,0,0,0-1.17,2.46,10.76,10.76,0,0,0-.36,2.33c0,.37,0,.45-.16.58s-.35.2-.58,0l-.18-.14,0-.77A9.49,9.49,0,0,1,7.1,21,10,10,0,0,1,10,16.68C10.65,16.11,10.78,16.06,11.05,16.27Z"/><path class="cls-3" d="M17.73,24.65A2.34,2.34,0,0,0,16.34,26c-.11.31-.12.64-.12,4.64v4.3l.17.35a2,2,0,0,0,1,1,1.53,1.53,0,0,0,.92.2,1.61,1.61,0,0,0,.92-.21,1.92,1.92,0,0,0,1-1.08,4.76,4.76,0,0,0,.13-1.72V32.11h4.45l4.44,0,0,1.48,0,1.47.18.34a2.1,2.1,0,0,0,3.31.47,1.93,1.93,0,0,0,.58-1.21c.05-.3.07-1.81.05-4.45v-4l-.22-.43a2.06,2.06,0,0,0-3.74,0c-.15.31-.15.39-.17,1.75l0,1.43H20.37l0-1.43c0-1.4,0-1.43-.18-1.75a2,2,0,0,0-1.79-1.16A2.81,2.81,0,0,0,17.73,24.65Z"/><path class="cls-3" d="M34.3,30.47c0,2.06,0,3.69.06,3.69a2.6,2.6,0,0,0,.75-.92c.27-.57.3-.88.27-3,0-1.84,0-2-.16-2.31a2.86,2.86,0,0,0-.76-1.07l-.16-.1Z"/><path class="cls-3" d="M15,27.1a2.35,2.35,0,0,0-.6,1.14,11.29,11.29,0,0,0-.09,2.26c0,2,0,2.24.26,2.74a3,3,0,0,0,.77.92s.06-1.51.06-3.66a25.85,25.85,0,0,0-.08-3.66A1.14,1.14,0,0,0,15,27.1Z"/><path class="cls-3" d="M13.08,29.22a1.87,1.87,0,0,0-.42,1.28,1.81,1.81,0,0,0,.45,1.3l.25.28V30.52c0-.86,0-1.56,0-1.56A1.85,1.85,0,0,0,13.08,29.22Z"/><path class="cls-3" d="M36.3,30.5v1.58l.25-.29a2.07,2.07,0,0,0,0-2.59l-.24-.27Z"/></svg>